<!DOCTYPE svg PUBLIC "-//W3C//DTD SVG 1.1//EN" "http://www.w3.org/Graphics/SVG/1.1/DTD/svg11.dtd">
<!-- Uploaded to: SVG Repo, www.svgrepo.com, Transformed by: SVG Repo Mixer Tools -->
<svg fill="#8bc349" height="103px" width="103px" version="1.1" id="Layer_1" xmlns="http://www.w3.org/2000/svg" xmlns:xlink="http://www.w3.org/1999/xlink" viewBox="0 0 512 512" xml:space="preserve" stroke="#8bc349">
<g id="SVGRepo_bgCarrier" stroke-width="0"/>
<g id="SVGRepo_tracerCarrier" stroke-linecap="round" stroke-linejoin="round"/>
<g id="SVGRepo_iconCarrier"> <g> <g> <path d="M136.533,88.747l-81.92,81.92l13.653,13.653l62.293-62.293c0.853-0.853,1.707-1.707,2.56-1.707s1.707-0.853,3.413-0.853 c0.853,0,1.707,0,1.707,0h0.853c0.853,0,1.707,0.853,2.56,1.707l62.293,62.293l13.653-13.653L136.533,88.747z"/> </g> </g> <g> <g> <polygon points="136.533,139.947 93.867,182.613 93.867,238.933 179.2,238.933 179.2,182.613 "/> </g> </g> <g> <g> <path d="M477.867,34.133H290.133v-25.6c0-5.12-3.413-8.533-8.533-8.533h-51.2c-5.12,0-8.533,3.413-8.533,8.533v25.6H34.133 C15.36,34.133,0,49.493,0,68.267V256c0,18.773,15.36,34.133,34.133,34.133h187.733v110.933c0,21.333-5.12,41.813-14.507,60.587 c-6.827,2.56-11.093,8.533-11.093,16.213v25.6c0,5.12,3.413,8.533,8.533,8.533h102.4c5.12,0,8.533-3.413,8.533-8.533v-25.6 c0-7.68-4.267-13.653-11.093-16.213c-9.387-18.773-14.507-39.253-14.507-60.587V290.133h187.733 C496.64,290.133,512,274.773,512,256V68.267C512,49.493,496.64,34.133,477.867,34.133z M238.933,17.067h34.133v17.067h-34.133 V17.067z M210.773,202.24c-1.707,1.707-3.413,2.56-5.973,2.56s-4.267-0.853-5.973-2.56l-2.56-2.56v47.787 c0,5.12-3.413,8.533-8.533,8.533h-102.4c-5.12,0-8.533-3.413-8.533-8.533V199.68l-2.56,2.56c-1.707,1.707-3.413,2.56-5.973,2.56 s-4.267-0.853-5.973-2.56l-25.6-25.6c-3.413-3.413-3.413-8.533,0-11.947l93.867-93.867c1.707-1.707,3.413-2.56,5.973-2.56 s4.267,0.853,5.973,2.56l93.867,93.867c1.707,1.707,2.56,3.413,2.56,5.973s-0.853,4.267-2.56,5.973L210.773,202.24z M273.067,290.133v102.4h-34.133v-102.4H273.067z M226.987,460.8c6.827-16.213,11.093-33.28,11.947-51.2h34.133 c0.853,17.92,5.12,34.987,11.947,51.2H226.987z M392.533,221.867H273.067c-5.12,0-8.533-3.413-8.533-8.533 c0-5.12,3.413-8.533,8.533-8.533h119.467c5.12,0,8.533,3.413,8.533,8.533C401.067,218.453,397.653,221.867,392.533,221.867z M264.533,162.133c0-5.12,3.413-8.533,8.533-8.533h51.2c5.12,0,8.533,3.413,8.533,8.533s-3.413,8.533-8.533,8.533h-51.2 C267.947,170.667,264.533,167.253,264.533,162.133z M469.333,221.867h-42.667c-5.12,0-8.533-3.413-8.533-8.533 c0-5.12,3.413-8.533,8.533-8.533h42.667c5.12,0,8.533,3.413,8.533,8.533C477.867,218.453,474.453,221.867,469.333,221.867z M469.333,170.667H358.4c-5.12,0-8.533-3.413-8.533-8.533s3.413-8.533,8.533-8.533h110.933c5.12,0,8.533,3.413,8.533,8.533 S474.453,170.667,469.333,170.667z M469.333,119.467H273.067c-5.12,0-8.533-3.413-8.533-8.533s3.413-8.533,8.533-8.533h196.267 c5.12,0,8.533,3.413,8.533,8.533S474.453,119.467,469.333,119.467z"/> </g> </g> </g>
</svg>