<!DOCTYPE svg PUBLIC "-//W3C//DTD SVG 1.1//EN" "http://www.w3.org/Graphics/SVG/1.1/DTD/svg11.dtd">
<!-- Uploaded to: SVG Repo, www.svgrepo.com, Transformed by: SVG Repo Mixer Tools -->
<svg fill=" #8bc349" width="103px" height="103px" viewBox="0 0 32 32" xmlns="http://www.w3.org/2000/svg">
<g id="SVGRepo_bgCarrier" stroke-width="0"/>
<g id="SVGRepo_tracerCarrier" stroke-linecap="round" stroke-linejoin="round"/>
<g id="SVGRepo_iconCarrier"> <title/> <g data-name="Layer 2" id="Layer_2"> <path d="M30,1H2A1,1,0,0,0,1,2V5A1,1,0,0,0,2,6V26a1,1,0,0,0-1,1v3a1,1,0,0,0,1,1H30a1,1,0,0,0,1-1V27a1,1,0,0,0-1-1V6a1,1,0,0,0,1-1V2A1,1,0,0,0,30,1ZM3,3H29V4H3ZM13,26V6h2V26ZM4,6h7V26H4ZM29,29H3V28H29Zm-1-3H17V6H28Z"/> <path d="M19,19a1,1,0,0,0,1-1V14a1,1,0,0,0-2,0v4A1,1,0,0,0,19,19Z"/> </g> </g>
</svg>